<?xml version="1.0" encoding="utf-8"?>
<!-- Uploaded to: SVG Repo, www.svgrepo.com, Generator: SVG Repo Mixer Tools -->
<svg width="800px" height="800px" viewBox="0 0 1024 1024" class="icon"  version="1.1" xmlns="http://www.w3.org/2000/svg"><path d="M434.2 878.1c15.4 16.9 38.5 22.9 82.6 24 57.9 1.4 75.4-8.5 92.5-48.5 2.8-6.5 5.5-13.6 8.2-21.5l-183.3 46zM377.6 707c2 7.4 4 15.4 6.1 24 0.7 2.8 7.7 32.1 10.8 44.3l256.7-64.5c0.4-1.3 0.7-2.6 1.1-3.9H377.6v0.1z m-18.3-55.9c-8-18-17.2-30.9-30-42.2-22.8-20.2-42-43.7-57-69.6h484.4c-14.5 25.1-33 48-54.9 67.8-12.8 11.6-22.2 25.1-30.6 44H359.3zM235 399.5c0-154.4 125.2-279.6 279.6-279.6s279.6 125.2 279.6 279.6c0 39.3-8.1 77.2-23.2 111.8H258.2c-15.1-34.7-23.2-72.6-23.2-111.8z m57.3 251.3c-69.4-61.5-113.2-151.3-113.2-251.3C179.1 214.2 329.3 64 514.6 64S850.1 214.2 850.1 399.5c0 98.8-42.7 187.7-110.7 249.1-32.6 29.5-46 151.1-78.6 227-26.8 62.4-66 84.2-145.2 82.3-77.3-1.8-120.4-21.3-147.2-80.8-34.1-75.5-43-197-76.1-226.3z" fill="#49535B" /><path d="M235 399.5c0-154.4 125.2-279.6 279.6-279.6s279.6 125.2 279.6 279.6c0 39.3-8.1 77.2-23.2 111.8H258.2c-15.1-34.7-23.2-72.6-23.2-111.8zM359.3 651.1c-8-18-17.2-30.9-30-42.2-22.8-20.2-42-43.7-57-69.6h484.4c-14.5 25.1-33 48-54.9 67.8-12.8 11.6-22.2 25.1-30.6 44H359.3zM418.8 853.1c-5.9-13.4-11.4-29.6-17.3-50.7L643 741.8c-3.1 11.8-7.3 28.4-8.8 34-2.4 9.1-4.7 17.4-6.9 25l-208.5 52.3z" fill="#FFFFFF" /><path d="M304.9 400.8c-14 0-13.4-20.6-12.2-30C305.6 270 385.6 190.2 486.4 177.6c7-0.9 29.4-1.7 29.4 12.2 0 14-31.5 16.3-31.5 16.3-83.8 13-150.1 79.3-163.1 163.1 0 0-2.4 31.6-16.3 31.6z" fill="#E0E0E0" /></svg>